<?xml version="1.0" encoding="UTF-8"?>
<svg id="Layer_2" data-name="Layer 2" xmlns="http://www.w3.org/2000/svg" viewBox="0 0 438.55 438.55">
  <defs>
    <style>
      .cls-1 {
        fill: #77c364;
      }

      .cls-1, .cls-2, .cls-3 {
        stroke-width: 0px;
      }

      .cls-2 {
        fill: #3eae2b;
      }

      .cls-3 {
        fill: #fff;
      }
    </style>
  </defs>
  <g id="Layer_3" data-name="Layer 3">
    <circle class="cls-2" cx="346.94" cy="66.65" r="46.66"/>
    <path class="cls-1" d="M413.74,118.14c-8.54,11.94-19.94,21.63-33.23,28.14,10.13,22.28,15.82,46.98,15.82,73,0,97.62-79.42,177.04-177.05,177.04S42.23,316.9,42.23,219.28,121.65,42.23,219.27,42.23c12.38,0,24.46,1.29,36.13,3.72,3.49-14.6,10.58-27.76,20.29-38.55-18.01-4.8-36.92-7.4-56.43-7.4C98.37,0,0,98.37,0,219.28s98.37,219.27,219.27,219.27,219.28-98.37,219.28-219.27c0-36.47-9-70.85-24.81-101.14Z"/>
    <path class="cls-3" d="M196.75,298.28c-.13-3.32,2.25-6.42,5.34-7.48,1.46-.56,3.07-.44,4.6-.49,9.06.06,18.13-.05,27.19.05,4.22-.08,7.95,3.69,7.91,7.88.19,4.17-3.54,8.29-7.79,8.08-9.78.04-19.55.02-29.32,0-4.28.24-8.16-3.81-7.93-8.05Z"/>
    <path class="cls-3" d="M196.75,325.46c-.13-3.32,2.25-6.42,5.34-7.48,1.46-.56,3.07-.44,4.6-.49,9.06.06,18.13-.05,27.19.05,4.22-.08,7.95,3.69,7.91,7.88.19,4.17-3.54,8.29-7.79,8.08-9.78.04-19.55.02-29.32,0-4.28.24-8.16-3.81-7.93-8.05Z"/>
    <path class="cls-3" d="M197.86,352.64c-.13-3.32,2.25-6.42,5.34-7.48,1.46-.56,3.07-.44,4.6-.49,9.06.06,18.13-.05,27.19.05,4.22-.08,7.95,3.69,7.91,7.88.19,4.17-3.54,8.29-7.79,8.08-9.78.04-19.55.02-29.32,0-4.28.24-8.16-3.81-7.93-8.05Z"/>
    <path class="cls-3" d="M348.24,210.92c-1.7,10.05-9.45,17.61-17.12,23.66-18.4,14.02-40.86,21.15-63.04,26.63,3.18,4.33,5.27,9.3,7.76,14.01,9.32-2.29,18.62-4.75,27.51-8.42,12.66-4.98,25.13-11.39,34.87-21.08.3,11.95-7.91,22.23-17.66,28.23-12.11,6.72-25.28,11.26-38.7,14.56,1.35,4.03,3.28,7.8,4.96,11.7,16.66-3.59,33.01-9.87,46.66-20.26-.09,7.92-4.67,15.05-10.48,20.11-8.14,7.13-18.95,9.81-28.98,13.14,4.66,6.41,13.24,9.16,20.88,7.52,3.91-.53,7.39-2.53,11.16-3.53-2.53,6.16-8.84,9.76-14.99,11.42-8.97,1.67-18.91.49-26.25-5.3-3.85-2.88-5.52-7.55-7.67-11.66-7.67-15.01-14.95-30.29-24.13-44.45-1.08-1.23-1.91-3.76-4.01-3.14-4.84.82-9.73,1.04-14.62,1.18-1.71,4.91-4.7,9.96-9.95,11.63-7.37,3.07-16.64-1.22-19.13-8.79-.57-.98-.54-2.83-2.04-2.8-5.2-.22-10.38-.71-15.55-1.3-5.35,7.27-9.69,15.21-13.85,23.21-5.66,10.17-10.5,20.77-15.92,31.06-3.97,6.65-11.72,10.03-19.18,10.79-4.96.33-10.18.56-14.8-1.56-4.91-1.97-9.63-5.26-11.68-10.33,5.25,1.81,10.5,4.22,16.19,4.01,6.17-.06,12.22-3.03,15.98-7.94-11.26-3.68-23.66-6.78-31.9-15.92-4.64-4.75-7.25-11.05-7.97-17.59,13.6,10.39,29.85,16.76,46.46,20.41,2.09-1.71,2.49-5.08,3.96-7.45.53-1.37,1.08-2.74,1.61-4.11-13.53-3.42-26.9-7.9-39.09-14.8-9.5-6.01-17.8-16.15-17.15-27.98,5.64,6.14,12.93,10.41,20.11,14.48,13.3,6.85,27.57,11.67,42.14,14.96,2.47-4.73,4.53-9.71,7.72-14.02-22.57-5.5-45.44-12.84-63.97-27.34-6.74-5.31-13.08-11.89-15.61-20.28-1.05-3.9-1.41-9.08,2.43-11.61,1.53,1.6,1.97,4.06,3.44,5.78,8.58,11.45,21.16,19.1,33.89,25.16,15.99,7.57,33.2,12.17,50.58,15.18,7.44,1.27,14.96,2.25,22.52,2.19-.34-5.47-.43-10.95-1-16.4-22.31-1.48-44.44-6.35-65.14-14.89-12.33-5.49-24.53-12.04-33.91-21.92-4.62-5.35-9.3-11.81-8.62-19.27-.05-2.34,1.83-4,3.36-5.5,3.56,7.87,9.96,13.97,16.9,18.91,14.67,10.47,31.71,17.22,49.1,21.64,12.29,3.13,24.84,5.3,37.5,6.23-.11-5.36-.32-10.73-.6-16.08-.19-.23-.55-.66-.72-.88-19.29-1.49-38.32-6.23-56.09-13.91-10.64-4.98-21.15-10.96-29.06-19.83-3.55-4.24-6.52-9.35-6.87-14.98-.02-2.57,1.13-5.91,4-6.4,3.61,8.29,11.17,13.95,18.4,18.97,17.96,11.43,38.86,17.28,59.76,20.43,3.23.52,6.5.72,9.78.82-.15-5.72-.83-11.4-.94-17.13-16.66-1.28-33.02-5.91-48.19-12.85-8.26-4.18-16.36-9.25-22.2-16.58-2.62-3.37-4.64-7.46-4.7-11.8-.19-2.7,1.84-4.76,3.6-6.52,3.75,6.09,8.95,11.23,15.05,14.94,16.72,10.48,36.28,15.57,55.7,17.92-.07-1.66-.14-3.31-.23-4.97-.63-4.06-.58-8.16-.72-12.24-12.59-1.22-25.12-4.21-36.47-9.92-5.39-2.66-10.48-6.18-14.28-10.89-1.87-2.24-1.19-5.3-1-7.93,3.61.65,6.71,2.78,10.12,4.03,22.54,8.84,47.06,11.97,71.16,11,21.49-.85,43.12-5.1,62.61-14.42.84-.25,1.69-.42,2.58-.51.09,2.51.78,5.37-.93,7.52-2.79,3.87-6.77,6.69-10.75,9.2-12.11,6.95-25.9,10.4-39.7,11.91l-.56.5c-.85,5.5-.44,11.16-.78,16.72,9.14-.91,18.14-2.94,26.97-5.45,11.23-3.12,22.07-7.87,31.68-14.5,4.65-3.48,8.98-7.64,11.77-12.81,5.11,3.07,4.01,10.21,1.49,14.66-5.36,9.21-14.79,15.03-23.99,19.84-15.3,7.12-31.83,11.81-48.67,13.14-.14,3.15-.15,6.32-.66,9.45-.11,2.55-.21,5.11-.29,7.67,11.23-.39,22.27-2.86,33.1-5.7,12.87-3.33,25.27-8.55,36.53-15.63,7.27-5,14.71-10.73,18.38-19.02,3.43,1.11,4.41,5.4,3.69,8.57-1.92,9.41-9.27,16.41-16.67,21.91-13.84,9.92-30.04,15.86-46.41,20.12-9.67,2.18-19.45,4.07-29.36,4.64-.25,5.64-.56,11.27-.97,16.9,12.81-.74,25.48-3.09,37.91-6.22,14.33-3.54,28.23-8.97,41.02-16.37,9.96-6.01,19.81-13.42,24.94-24.17,4.43,3.35,3.84,9.51,1.83,14.05-4.39,9.95-13.2,16.95-22.05,22.81-10.04,6.1-20.76,11.11-31.96,14.64-16.87,5.67-34.5,9.03-52.26,10.11-.56,5.62-.72,11.27-.8,16.91,20.73-1.63,41.38-5.55,60.92-12.79,12.95-4.99,25.58-11.2,36.33-20.1,5.02-4.67,10.37-9.51,12.71-16.15,2.94,2.06,4.11,5.74,3.29,9.2Z"/>
  </g>
</svg>
