<?xml version="1.0" encoding="UTF-8"?>
<svg id="Layer_2" data-name="Layer 2" xmlns="http://www.w3.org/2000/svg" viewBox="0 0 362.19 401.25">
  <defs>
    <style>
      .cls-1 {
        fill: #77c364;
      }

      .cls-1, .cls-2, .cls-3 {
        stroke-width: 0px;
      }

      .cls-2 {
        fill: #3eae2b;
      }

      .cls-3 {
        fill: #fff;
      }
    </style>
  </defs>
  <g id="Layer_3" data-name="Layer 3">
    <circle class="cls-2" cx="264.79" cy="48.78" r="34.15"/>
    <path class="cls-1" d="M313.67,86.46c-6.25,8.74-14.6,15.83-24.32,20.59,7.41,16.3,11.58,34.38,11.58,53.43,0,71.45-58.13,129.57-129.57,129.57S41.78,231.93,41.78,160.48,99.9,30.91,171.35,30.91c9.06,0,17.9.94,26.44,2.72,2.56-10.68,7.74-20.31,14.85-28.21-13.18-3.51-27.02-5.41-41.3-5.41C82.86,0,10.87,71.99,10.87,160.48s71.99,160.48,160.48,160.48,160.48-71.99,160.48-160.48c0-26.69-6.59-51.86-18.16-74.02Z"/>
    <g>
      <path class="cls-1" d="M18.64,373.19l9.1-13.9h8.33l-13.26,19.67,14.54,21.59h-8.33l-10.38-15.82-10.31,15.82H0l14.48-21.59-13.2-19.67h8.33l9.03,13.9Z"/>
      <path class="cls-3" d="M66.01,384.08l10.76,16.46h-8.33l-10.12-15.57h-7.3v15.57h-7.24v-41.26h15.76c11.27,0,15.57,5.19,15.57,12.87,0,5.7-3.01,10.19-9.1,11.92ZM51.01,366.08v12.11h8.52c6.34,0,8.26-2.44,8.26-6.02,0-3.84-1.92-6.08-8.26-6.08h-8.52Z"/>
      <path class="cls-3" d="M108.56,391.38h-17.42l-3.46,9.16h-7.5l15.95-41.26h7.43l15.95,41.26h-7.5l-3.46-9.16ZM93.64,384.59h12.37l-6.15-16.08-6.22,16.08Z"/>
      <path class="cls-3" d="M141.26,384.53v16.01h-7.37v-15.89l-15.95-25.37h8.26l11.34,18.71,11.34-18.71h8.26l-15.89,25.24Z"/>
      <path class="cls-3" d="M178.18,377.54h14.48v20.95c-2.56,1.54-6.54,2.75-11.98,2.75-13.58,0-19.28-6.34-19.28-21.33,0-12.36,5.38-21.2,18.96-21.2,5.76,0,9.48,1.41,12.17,2.82l-1.09,6.79c-2.31-1.41-6.85-2.82-10.95-2.82-8.71,0-11.6,4.74-11.6,14.67,0,8.39,2.05,14.28,11.72,14.28,1.92,0,3.65-.32,5.32-.7v-9.93h-7.75v-6.28Z"/>
      <path class="cls-3" d="M208.31,393.75h21.52v6.79h-28.76v-41.26h28.76v6.79h-21.52v9.86h18.96v6.79h-18.96v11.02Z"/>
      <path class="cls-3" d="M237.54,359.29h6.98l17.04,27.55v-27.55h7.31v41.26h-6.98l-17.1-27.48v27.48h-7.24v-41.26Z"/>
      <path class="cls-3" d="M278.56,359.29h7.31v41.26h-7.31v-41.26Z"/>
      <path class="cls-3" d="M294.9,359.29h7.24v24.41c0,8.07,3.46,10.76,9.1,10.76s8.97-2.69,8.97-10.76v-24.41h7.3v24.41c0,12.69-6.79,17.55-16.27,17.55s-16.33-4.87-16.33-17.55v-24.41Z"/>
      <path class="cls-3" d="M336.18,391.06c3.07,2.18,7.17,3.33,10.76,3.33,4.36,0,7.88-1.6,7.88-5.19,0-8.13-20.12-3.65-20.12-18.57,0-8.33,6.98-11.92,14.29-11.92,4.29,0,8.71,1.28,11.85,3.59l-2.18,6.6c-2.82-2.31-6.53-3.4-9.74-3.4-3.84,0-6.85,1.54-6.85,4.74,0,8.84,20.11,4.1,20.11,18.32,0,8.97-7.56,12.69-15.37,12.69-4.68,0-9.42-1.28-12.75-3.65l2.12-6.54Z"/>
    </g>
    <path class="cls-3" d="M154.87,218.3c-.1-2.43,1.65-4.7,3.9-5.47,1.07-.41,2.24-.32,3.37-.36,6.63.04,13.27-.03,19.9.03,3.09-.06,5.82,2.7,5.79,5.76.14,3.05-2.59,6.07-5.7,5.92-7.15.03-14.31.01-21.46,0-3.13.17-5.97-2.79-5.81-5.89Z"/>
    <path class="cls-3" d="M154.87,238.2c-.1-2.43,1.65-4.7,3.9-5.47,1.07-.41,2.24-.32,3.37-.36,6.63.04,13.27-.03,19.9.03,3.09-.06,5.82,2.7,5.79,5.76.14,3.05-2.59,6.07-5.7,5.92-7.15.03-14.31.01-21.46,0-3.13.17-5.97-2.79-5.81-5.89Z"/>
    <path class="cls-3" d="M155.68,258.09c-.1-2.43,1.65-4.7,3.9-5.47,1.07-.41,2.24-.32,3.37-.36,6.63.04,13.27-.03,19.9.03,3.09-.06,5.82,2.7,5.79,5.76.14,3.05-2.59,6.07-5.7,5.92-7.15.03-14.31.01-21.46,0-3.13.17-5.97-2.79-5.81-5.89Z"/>
    <path class="cls-3" d="M265.74,154.36c-1.25,7.35-6.91,12.89-12.53,17.32-13.47,10.26-29.9,15.48-46.14,19.49,2.33,3.17,3.86,6.8,5.68,10.25,6.82-1.67,13.63-3.48,20.14-6.16,9.26-3.64,18.39-8.33,25.52-15.43.22,8.75-5.79,16.27-12.93,20.66-8.86,4.92-18.5,8.24-28.32,10.65.98,2.95,2.4,5.71,3.63,8.56,12.2-2.63,24.16-7.22,34.15-14.83-.07,5.8-3.42,11.01-7.67,14.72-5.96,5.22-13.87,7.18-21.21,9.61,3.41,4.69,9.69,6.7,15.28,5.5,2.86-.39,5.41-1.85,8.17-2.58-1.85,4.51-6.47,7.14-10.97,8.36-6.56,1.23-13.84.36-19.21-3.88-2.82-2.11-4.04-5.52-5.61-8.53-5.61-10.98-10.94-22.17-17.66-32.53-.79-.9-1.4-2.75-2.93-2.3-3.54.6-7.12.76-10.7.86-1.25,3.59-3.44,7.29-7.28,8.51-5.39,2.24-12.18-.9-14-6.43-.42-.72-.39-2.07-1.49-2.05-3.81-.16-7.6-.52-11.38-.95-3.92,5.32-7.09,11.14-10.14,16.99-4.15,7.44-7.69,15.2-11.65,22.73-2.91,4.87-8.58,7.34-14.03,7.9-3.63.24-7.45.41-10.83-1.14-3.59-1.44-7.04-3.85-8.55-7.56,3.84,1.32,7.69,3.09,11.85,2.93,4.52-.04,8.95-2.22,11.69-5.81-8.24-2.69-17.31-4.97-23.34-11.65-3.39-3.48-5.31-8.08-5.83-12.87,9.95,7.6,21.84,12.26,34,14.94,1.53-1.25,1.82-3.72,2.9-5.45.39-1.01.79-2,1.18-3.01-9.9-2.5-19.69-5.78-28.61-10.83-6.96-4.4-13.03-11.82-12.55-20.48,4.12,4.5,9.46,7.62,14.72,10.6,9.73,5.01,20.18,8.54,30.84,10.95,1.8-3.46,3.31-7.11,5.65-10.26-16.52-4.03-33.25-9.4-46.82-20.01-4.93-3.88-9.57-8.7-11.42-14.84-.77-2.86-1.03-6.65,1.78-8.5,1.12,1.17,1.44,2.97,2.52,4.23,6.28,8.38,15.49,13.98,24.8,18.41,11.7,5.54,24.3,8.9,37.01,11.11,5.45.93,10.95,1.65,16.48,1.6-.25-4-.32-8.02-.73-12-16.33-1.08-32.52-4.65-47.67-10.89-9.02-4.01-17.95-8.81-24.82-16.05-3.38-3.92-6.8-8.64-6.31-14.1-.03-1.71,1.34-2.93,2.46-4.03,2.6,5.76,7.29,10.23,12.37,13.84,10.74,7.66,23.21,12.6,35.93,15.84,8.99,2.29,18.18,3.88,27.44,4.56-.08-3.93-.23-7.85-.44-11.77-.14-.17-.4-.48-.53-.64-14.12-1.09-28.05-4.56-41.05-10.18-7.79-3.64-15.48-8.02-21.27-14.51-2.6-3.11-4.77-6.85-5.03-10.96-.01-1.88.83-4.32,2.93-4.68,2.64,6.07,8.17,10.21,13.46,13.88,13.15,8.37,28.44,12.64,43.74,14.95,2.36.38,4.76.52,7.15.6-.11-4.19-.61-8.35-.69-12.53-12.2-.94-24.16-4.32-35.27-9.41-6.05-3.06-11.98-6.77-16.24-12.13-1.91-2.47-3.39-5.46-3.44-8.64-.14-1.98,1.35-3.48,2.64-4.77,2.75,4.46,6.55,8.22,11.02,10.94,12.24,7.67,26.55,11.4,40.77,13.12-.05-1.21-.1-2.42-.17-3.64-.46-2.97-.43-5.97-.52-8.96-9.21-.9-18.39-3.08-26.69-7.26-3.95-1.95-7.67-4.52-10.45-7.97-1.37-1.64-.87-3.88-.73-5.81,2.64.48,4.91,2.03,7.41,2.95,16.5,6.47,34.44,8.76,52.08,8.05,15.73-.62,31.56-3.73,45.82-10.55.61-.19,1.24-.31,1.89-.37.07,1.84.57,3.93-.68,5.5-2.04,2.83-4.95,4.9-7.87,6.73-8.86,5.09-18.96,7.61-29.05,8.72l-.41.37c-.62,4.02-.32,8.17-.57,12.24,6.69-.67,13.28-2.15,19.74-3.99,8.22-2.29,16.16-5.76,23.19-10.61,3.4-2.55,6.57-5.59,8.61-9.37,3.74,2.24,2.93,7.47,1.09,10.73-3.93,6.74-10.83,11-17.56,14.52-11.2,5.21-23.3,8.64-35.62,9.61-.1,2.31-.11,4.63-.48,6.91-.08,1.87-.15,3.74-.21,5.61,8.22-.28,16.3-2.09,24.23-4.17,9.42-2.44,18.5-6.26,26.73-11.44,5.32-3.66,10.76-7.85,13.45-13.92,2.51.81,3.23,3.95,2.7,6.27-1.4,6.89-6.78,12.01-12.2,16.04-10.13,7.26-21.99,11.61-33.96,14.72-7.08,1.6-14.23,2.98-21.49,3.39-.19,4.12-.41,8.25-.71,12.37,9.37-.54,18.65-2.26,27.75-4.55,10.49-2.59,20.66-6.56,30.02-11.98,7.29-4.4,14.5-9.82,18.26-17.69,3.24,2.45,2.81,6.96,1.34,10.28-3.22,7.28-9.66,12.4-16.13,16.69-7.35,4.46-15.19,8.13-23.39,10.72-12.35,4.15-25.25,6.61-38.25,7.4-.41,4.11-.53,8.25-.59,12.37,15.17-1.19,30.29-4.06,44.58-9.36,9.48-3.65,18.72-8.19,26.59-14.71,3.67-3.42,7.59-6.96,9.3-11.82,2.15,1.51,3.01,4.2,2.41,6.73Z"/>
  </g>
</svg>
